<svg xmlns="http://www.w3.org/2000/svg" xmlns:xlink="http://www.w3.org/1999/xlink" viewBox="0 0 339 494.72"><defs><style>.cls-1{fill:none;}.cls-2{fill:#ededeb;opacity:0.49;}.cls-3{fill:#acc927;opacity:0.4;}.cls-4{fill:#fff;opacity:0.5;}.cls-5{clip-path:url(#clip-path);}.cls-6{clip-path:url(#clip-path-2);}</style><clipPath id="clip-path" transform="translate(-50.27 24.89)"><rect class="cls-1" y="0.79" width="174.54" height="86.48"/></clipPath><clipPath id="clip-path-2" transform="translate(-50.27 24.89)"><rect class="cls-1" x="3" y="349.52" width="174.54" height="86.48"/></clipPath></defs><g id="Capa_2" data-name="Capa 2"><g id="Capa_1-2" data-name="Capa 1"><path class="cls-2" d="M74.14,0H389.27a0,0,0,0,1,0,0V434a0,0,0,0,1,0,0H71.74a21.47,21.47,0,0,1-21.47-21.47V23.87A23.87,23.87,0,0,1,74.14,0Z" transform="translate(389.27 458.89) rotate(-180)"/><circle class="cls-3" cx="223" cy="138.89" r="114"/><circle class="cls-3" cx="225" cy="346.89" r="114"/><circle class="cls-4" cx="130" cy="257.89" r="127"/><text x="-50.27" y="24.89"/><g class="cls-5"><ellipse class="cls-3" cx="80" cy="42.8" rx="43" ry="42.8"/></g><g class="cls-6"><ellipse class="cls-3" cx="82" cy="451.92" rx="43" ry="42.8"/></g></g></g></svg>