<svg xmlns="http://www.w3.org/2000/svg" viewBox="0 0 182.13 124.08"><defs><style>.cls-1{fill:#fff;}</style></defs><g id="Capa_2" data-name="Capa 2"><g id="Capa_1-2" data-name="Capa 1"><path class="cls-1" d="M51.19,73.84c.13-.47-.26-1.1-.45-1.65a51.79,51.79,0,0,1-1.27-28.66c2.4-10.14,9.08-17,18.09-21.82,6.25-3.35,13-5.57,19.37-8.54a29.52,29.52,0,0,0,7.94-5.29A11.21,11.21,0,0,0,98.32,0a13,13,0,0,1,2.09,5.49c2.16,10.74-.29,20.69-5.63,30C88.52,46.36,79.53,53.78,67,56.28a34.6,34.6,0,0,1-11.84.3C54,56.41,53.71,56,53.92,55a17.68,17.68,0,0,1,4.45-8.32,47.65,47.65,0,0,1,8-7.37,5.46,5.46,0,0,0,2-1.74.69.69,0,0,0-1-.07c-4.86,2.83-9.47,6-13.17,10.26A12.39,12.39,0,0,0,51,57.53c.46,4.77,1.2,9.41,3.36,13.73.26.51.43,1.08,1.07,1.32"/><path class="cls-1" d="M14.18,112.55H36a9.87,9.87,0,0,1,3.85.55,2.84,2.84,0,0,1,1.6,1.71,12.25,12.25,0,0,1,0,6.21,2.56,2.56,0,0,1-1.36,1.6,9.78,9.78,0,0,1-4.17.73H7.05q-5.61,0-6.57-2.77A10.54,10.54,0,0,1,0,116.86V76.27a19.39,19.39,0,0,1,.12-2.52,5.44,5.44,0,0,1,.76-1.93q1.13-2,6.25-2c3.73,0,6,.91,6.65,2.71a13.48,13.48,0,0,1,.4,3.79Z"/><path class="cls-1" d="M47,76.27a19.39,19.39,0,0,1,.12-2.52,5.63,5.63,0,0,1,.76-1.93q1.13-2,6.25-2c3.74,0,6,.91,6.65,2.71a13.11,13.11,0,0,1,.4,3.79v40.59a19.08,19.08,0,0,1-.12,2.55,5.47,5.47,0,0,1-.76,1.9c-.75,1.32-2.83,2-6.25,2q-5.61,0-6.57-2.77a10.54,10.54,0,0,1-.48-3.72Z"/><path class="cls-1" d="M105.52,72.07a3.76,3.76,0,0,1,2.28-1.71,13.7,13.7,0,0,1,3.81-.44,15.24,15.24,0,0,1,3.68.36,6.24,6.24,0,0,1,2.08.88,2.88,2.88,0,0,1,1,1.53,10.54,10.54,0,0,1,.48,3.72v40.52a19.08,19.08,0,0,1-.12,2.55,5.47,5.47,0,0,1-.76,1.9c-.75,1.32-2.83,2-6.24,2a14.12,14.12,0,0,1-4.33-.44,4.62,4.62,0,0,1-2-1.38q-18-21.9-23.71-28.62v24a19.08,19.08,0,0,1-.12,2.55,5.47,5.47,0,0,1-.76,1.9c-.75,1.32-2.83,2-6.25,2s-5.34-.65-6.08-2a5.46,5.46,0,0,1-.76-2,20.14,20.14,0,0,1-.12-2.55V76.12a8.17,8.17,0,0,1,.76-4.05,3.7,3.7,0,0,1,2.28-1.71,14.16,14.16,0,0,1,3.92-.44,14.29,14.29,0,0,1,3.81.4,5.12,5.12,0,0,1,2,.91,20.37,20.37,0,0,1,1.84,1.9q16.9,21,22.59,27.67V76.12A8.17,8.17,0,0,1,105.52,72.07Z"/><path class="cls-1" d="M159.14,73.64l21.62,40.73a9,9,0,0,1,1.37,3.73q0,2.63-4.65,4.74a11.21,11.21,0,0,1-4.28,1.24,4.66,4.66,0,0,1-2.57-.65,4.47,4.47,0,0,1-1.44-1.39c-.29-.49-.71-1.22-1.24-2.19L163.78,112H141.6l-4.17,7.88c-.53,1-.94,1.68-1.24,2.12a5.43,5.43,0,0,1-1.44,1.35,4.42,4.42,0,0,1-2.56.69,11.25,11.25,0,0,1-4.29-1.24q-4.64-2-4.64-4.67a8.93,8.93,0,0,1,1.36-3.73l21.62-40.8a6.66,6.66,0,0,1,2.69-2.7,7.61,7.61,0,0,1,3.8-1A6.84,6.84,0,0,1,159.14,73.64Zm-6.49,17.52-5.28,10H158Z"/></g></g></svg>