<svg xmlns="http://www.w3.org/2000/svg" viewBox="0 0 183.89 124.59"><defs><style>.cls-1{fill:#8ec044;}.cls-2{fill:#d2d2b4;}.cls-3{fill:#676766;}</style></defs><g id="Capa_2" data-name="Capa 2"><g id="Capa_1-2" data-name="Capa 1"><path class="cls-1" d="M54.39,73.84c.13-.47-.26-1.1-.44-1.65a51.7,51.7,0,0,1-1.28-28.66c2.4-10.14,9.09-17,18.1-21.82,6.24-3.35,13-5.57,19.37-8.54a29.68,29.68,0,0,0,7.94-5.29A11.29,11.29,0,0,0,101.53,0a13.14,13.14,0,0,1,2.08,5.49c2.16,10.74-.29,20.69-5.63,30C91.73,46.36,82.73,53.78,70.17,56.28a34.67,34.67,0,0,1-11.85.3c-1.13-.17-1.4-.54-1.2-1.63a17.68,17.68,0,0,1,4.45-8.32,48,48,0,0,1,8-7.37,5.5,5.5,0,0,0,2-1.74.7.7,0,0,0-1-.07c-4.85,2.83-9.46,6-13.17,10.26a12.43,12.43,0,0,0-3.29,9.82c.46,4.77,1.21,9.41,3.37,13.73.25.51.43,1.08,1.06,1.32"/><path class="cls-2" d="M14.18,107.07H36a9.87,9.87,0,0,1,3.85.55,2.86,2.86,0,0,1,1.6,1.71,12.25,12.25,0,0,1,0,6.21,2.56,2.56,0,0,1-1.36,1.6,9.78,9.78,0,0,1-4.17.73H7.05q-5.61,0-6.57-2.77A10.54,10.54,0,0,1,0,111.38V70.79a19.39,19.39,0,0,1,.12-2.52,5.44,5.44,0,0,1,.76-1.93c.75-1.32,2.83-2,6.25-2q5.59,0,6.65,2.7a13.53,13.53,0,0,1,.4,3.79Z"/><path class="cls-2" d="M47,70.79a19.39,19.39,0,0,1,.12-2.52,5.63,5.63,0,0,1,.76-1.93c.75-1.32,2.83-2,6.25-2,3.74,0,6,.9,6.65,2.7a13.16,13.16,0,0,1,.4,3.79v40.59a19.36,19.36,0,0,1-.12,2.56,5.5,5.5,0,0,1-.76,1.89c-.75,1.32-2.83,2-6.25,2q-5.61,0-6.57-2.77a10.54,10.54,0,0,1-.48-3.72Z"/><path class="cls-2" d="M105.52,66.59a3.76,3.76,0,0,1,2.28-1.71,13.7,13.7,0,0,1,3.81-.44,15.24,15.24,0,0,1,3.68.36,6.24,6.24,0,0,1,2.08.88,2.88,2.88,0,0,1,1,1.53,10.56,10.56,0,0,1,.48,3.73v40.51a19.36,19.36,0,0,1-.12,2.56,5.5,5.5,0,0,1-.76,1.89c-.75,1.32-2.83,2-6.24,2a14.54,14.54,0,0,1-4.33-.43,4.73,4.73,0,0,1-2-1.39q-18-21.9-23.71-28.62v24a19.36,19.36,0,0,1-.12,2.56,5.5,5.5,0,0,1-.76,1.89c-.75,1.32-2.83,2-6.25,2s-5.34-.65-6.08-2a5.39,5.39,0,0,1-.76-2,20.14,20.14,0,0,1-.12-2.55V70.64a8.17,8.17,0,0,1,.76-4,3.7,3.7,0,0,1,2.28-1.71,14.16,14.16,0,0,1,3.92-.44,14.29,14.29,0,0,1,3.81.4,5.12,5.12,0,0,1,2,.91,20.37,20.37,0,0,1,1.84,1.9q16.9,21,22.59,27.67V70.64A8.17,8.17,0,0,1,105.52,66.59Z"/><path class="cls-2" d="M159.14,68.16l21.62,40.74a8.91,8.91,0,0,1,1.37,3.72q0,2.63-4.65,4.74a11.27,11.27,0,0,1-4.28,1.25,4.58,4.58,0,0,1-2.57-.66,4.47,4.47,0,0,1-1.44-1.39c-.29-.49-.71-1.22-1.24-2.19l-4.17-7.88H141.6l-4.17,7.88c-.53,1-.94,1.68-1.24,2.12a5.28,5.28,0,0,1-1.44,1.35,4.42,4.42,0,0,1-2.56.69,11.25,11.25,0,0,1-4.29-1.24q-4.64-2-4.64-4.67a8.86,8.86,0,0,1,1.36-3.72l21.62-40.81a6.66,6.66,0,0,1,2.69-2.7,7.6,7.6,0,0,1,3.8-1A6.84,6.84,0,0,1,159.14,68.16Zm-6.49,17.52-5.28,10H158Z"/><path class="cls-3" d="M15.94,113.05H37.73a10,10,0,0,1,3.84.55,2.85,2.85,0,0,1,1.6,1.72,12.21,12.21,0,0,1,0,6.2,2.55,2.55,0,0,1-1.36,1.61,9.85,9.85,0,0,1-4.16.73H8.81q-5.6,0-6.56-2.78a10.5,10.5,0,0,1-.48-3.72V76.77a19.39,19.39,0,0,1,.12-2.52,5.51,5.51,0,0,1,.76-1.93c.74-1.31,2.83-2,6.24-2q5.61,0,6.65,2.7a13.19,13.19,0,0,1,.4,3.8Z"/><path class="cls-3" d="M48.78,76.77a19.39,19.39,0,0,1,.12-2.52,5.51,5.51,0,0,1,.76-1.93q1.13-2,6.25-2,5.6,0,6.65,2.7a13.56,13.56,0,0,1,.4,3.8v40.58a19.36,19.36,0,0,1-.12,2.56,5.75,5.75,0,0,1-.76,1.9c-.75,1.31-2.84,2-6.25,2q-5.61,0-6.57-2.78a10.5,10.5,0,0,1-.48-3.72Z"/><path class="cls-3" d="M107.29,72.58a3.68,3.68,0,0,1,2.28-1.72,14,14,0,0,1,3.8-.44,14.82,14.82,0,0,1,3.69.37,6.14,6.14,0,0,1,2.08.87,2.93,2.93,0,0,1,1,1.54,10.5,10.5,0,0,1,.48,3.72v40.51a19.36,19.36,0,0,1-.12,2.56,5.54,5.54,0,0,1-.76,1.9q-1.12,2-6.25,2a14.42,14.42,0,0,1-4.32-.44,4.56,4.56,0,0,1-2-1.39q-18-21.9-23.71-28.61v24a19.36,19.36,0,0,1-.12,2.56,5.75,5.75,0,0,1-.76,1.9q-1.12,2-6.25,2-5,0-6.09-2a5.46,5.46,0,0,1-.76-2,20.43,20.43,0,0,1-.12-2.56V76.63a8.17,8.17,0,0,1,.76-4,3.73,3.73,0,0,1,2.29-1.72,18,18,0,0,1,7.72,0,5.16,5.16,0,0,1,2,.92,19.57,19.57,0,0,1,1.84,1.89q16.89,21,22.58,27.67V76.63A8.16,8.16,0,0,1,107.29,72.58Z"/><path class="cls-3" d="M160.91,74.14l21.62,40.74a8.86,8.86,0,0,1,1.36,3.72c0,1.75-1.55,3.34-4.64,4.75a11.44,11.44,0,0,1-4.29,1.24,4.57,4.57,0,0,1-2.56-.66,4.47,4.47,0,0,1-1.44-1.39c-.3-.48-.71-1.21-1.24-2.19l-4.17-7.88H143.37l-4.17,7.88c-.53,1-.95,1.68-1.24,2.12a5.43,5.43,0,0,1-1.44,1.35,4.42,4.42,0,0,1-2.56.69,11.16,11.16,0,0,1-4.29-1.24q-4.65-2-4.65-4.67a8.91,8.91,0,0,1,1.37-3.72L148,74.07a6.63,6.63,0,0,1,2.68-2.7,7.64,7.64,0,0,1,3.81-1A6.85,6.85,0,0,1,160.91,74.14Zm-6.49,17.52-5.29,10h10.65Z"/></g></g></svg>